<svg width="194" height="25" viewBox="0 0 194 25" fill="none" xmlns="http://www.w3.org/2000/svg">
<path d="M0 24.6191V0.380886H2.6793V22.2299H17.1893V24.6191H0Z" fill="#2D2D2D"/>
<path d="M30.1364 25C28.3734 25 26.7264 24.6884 25.1953 24.0651C23.6875 23.4187 22.3537 22.53 21.1938 21.3989C20.0571 20.2447 19.164 18.9174 18.5145 17.4169C17.8882 15.8934 17.575 14.2544 17.575 12.5C17.575 10.7456 17.8882 9.11819 18.5145 7.61773C19.164 6.09418 20.0571 4.76685 21.1938 3.63573C22.3537 2.48153 23.6875 1.5928 25.1953 0.969529C26.7264 0.323176 28.3734 0 30.1364 0C31.8762 0 33.5 0.323176 35.0078 0.969529C36.5389 1.5928 37.8727 2.48153 39.0094 3.63573C40.1692 4.76685 41.0623 6.09418 41.6887 7.61773C42.3382 9.11819 42.663 10.7456 42.663 12.5C42.663 14.2544 42.3382 15.8934 41.6887 17.4169C41.0623 18.9174 40.1692 20.2447 39.0094 21.3989C37.8727 22.53 36.5389 23.4187 35.0078 24.0651C33.5 24.6884 31.8762 25 30.1364 25ZM30.1364 22.5416C31.5282 22.5416 32.8157 22.2876 33.9987 21.7798C35.1818 21.2719 36.2141 20.5679 37.0956 19.6676C38.0003 18.7442 38.6962 17.6708 39.1834 16.4474C39.6937 15.2239 39.9489 13.9081 39.9489 12.5C39.9489 11.0688 39.6937 9.753 39.1834 8.55263C38.6962 7.32918 38.0003 6.26731 37.0956 5.36703C36.2141 4.44367 35.1818 3.72807 33.9987 3.22022C32.8157 2.71237 31.5282 2.45845 30.1364 2.45845C28.7445 2.45845 27.4455 2.71237 26.2392 3.22022C25.0562 3.72807 24.0123 4.44367 23.1076 5.36703C22.2261 6.26731 21.5302 7.32918 21.0198 8.55263C20.5327 9.753 20.2891 11.0572 20.2891 12.4654C20.2891 13.8966 20.5327 15.2239 21.0198 16.4474C21.5302 17.6708 22.2261 18.7442 23.1076 19.6676C24.0123 20.5679 25.0562 21.2719 26.2392 21.7798C27.4455 22.2876 28.7445 22.5416 30.1364 22.5416Z" fill="#2D2D2D"/>
<path d="M58.2723 25C56.5093 25 54.8622 24.6884 53.3312 24.0651C51.8234 23.4187 50.4895 22.53 49.3297 21.3989C48.193 20.2447 47.2999 18.9174 46.6504 17.4169C46.024 15.8934 45.7109 14.2544 45.7109 12.5C45.7109 10.7456 46.024 9.11819 46.6504 7.61773C47.2999 6.09418 48.193 4.76685 49.3297 3.63573C50.4895 2.48153 51.8234 1.5928 53.3312 0.969529C54.8622 0.323176 56.5093 0 58.2723 0C60.0121 0 61.6359 0.323176 63.1437 0.969529C64.6747 1.5928 66.0086 2.48153 67.1453 3.63573C68.3051 4.76685 69.1982 6.09418 69.8246 7.61773C70.4741 9.11819 70.7988 10.7456 70.7988 12.5C70.7988 14.2544 70.4741 15.8934 69.8246 17.4169C69.1982 18.9174 68.3051 20.2447 67.1453 21.3989C66.0086 22.53 64.6747 23.4187 63.1437 24.0651C61.6359 24.6884 60.0121 25 58.2723 25ZM58.2723 22.5416C59.6641 22.5416 60.9516 22.2876 62.1346 21.7798C63.3177 21.2719 64.35 20.5679 65.2315 19.6676C66.1362 18.7442 66.8321 17.6708 67.3192 16.4474C67.8296 15.2239 68.0847 13.9081 68.0847 12.5C68.0847 11.0688 67.8296 9.753 67.3192 8.55263C66.8321 7.32918 66.1362 6.26731 65.2315 5.36703C64.35 4.44367 63.3177 3.72807 62.1346 3.22022C60.9516 2.71237 59.6641 2.45845 58.2723 2.45845C56.8804 2.45845 55.5814 2.71237 54.3751 3.22022C53.192 3.72807 52.1482 4.44367 51.2435 5.36703C50.362 6.26731 49.666 7.32918 49.1557 8.55263C48.6685 9.753 48.425 11.0572 48.425 12.4654C48.425 13.8966 48.6685 15.2239 49.1557 16.4474C49.666 17.6708 50.362 18.7442 51.2435 19.6676C52.1482 20.5679 53.192 21.2719 54.3751 21.7798C55.5814 22.2876 56.8804 22.5416 58.2723 22.5416Z" fill="#2D2D2D"/>
<path d="M74.995 24.6191V0.380886H77.6743V11.8767L90.2705 0.380886H93.7849L80.5624 12.2576L94.0633 24.6191H90.3053L77.6743 12.9848V24.6191H74.995Z" fill="#2D2D2D"/>
<path d="M96.1309 24.6191V0.380886H106.013C107.59 0.380886 108.947 0.63481 110.084 1.14266C111.244 1.65051 112.137 2.37765 112.763 3.3241C113.39 4.24746 113.703 5.34395 113.703 6.61357C113.703 7.86011 113.367 8.94506 112.694 9.86842C112.044 10.7918 111.14 11.4958 109.98 11.9806C111.441 12.4192 112.589 13.1464 113.425 14.162C114.283 15.1777 114.712 16.3897 114.712 17.7978C114.712 19.1828 114.364 20.3947 113.668 21.4335C112.995 22.4492 112.033 23.2341 110.78 23.7881C109.551 24.3421 108.101 24.6191 106.431 24.6191H96.1309ZM98.8102 10.9418H105.874C107.451 10.9418 108.704 10.5725 109.632 9.83379C110.583 9.09511 111.058 8.09095 111.058 6.82133C111.058 5.55171 110.583 4.54755 109.632 3.80886C108.704 3.07018 107.451 2.70083 105.874 2.70083H98.8102V10.9418ZM98.8102 22.2992H106.222C107.985 22.2992 109.388 21.8837 110.432 21.0526C111.476 20.2216 111.998 19.1136 111.998 17.7285C111.998 16.3435 111.476 15.2355 110.432 14.4044C109.388 13.5734 107.985 13.1579 106.222 13.1579H98.8102V22.2992Z" fill="#2D2D2D"/>
<path d="M130.073 25C128.31 25 126.663 24.6884 125.132 24.0651C123.624 23.4187 122.29 22.53 121.131 21.3989C119.994 20.2447 119.101 18.9174 118.451 17.4169C117.825 15.8934 117.512 14.2544 117.512 12.5C117.512 10.7456 117.825 9.11819 118.451 7.61773C119.101 6.09418 119.994 4.76685 121.131 3.63573C122.29 2.48153 123.624 1.5928 125.132 0.969529C126.663 0.323176 128.31 0 130.073 0C131.813 0 133.437 0.323176 134.945 0.969529C136.476 1.5928 137.809 2.48153 138.946 3.63573C140.106 4.76685 140.999 6.09418 141.625 7.61773C142.275 9.11819 142.6 10.7456 142.6 12.5C142.6 14.2544 142.275 15.8934 141.625 17.4169C140.999 18.9174 140.106 20.2447 138.946 21.3989C137.809 22.53 136.476 23.4187 134.945 24.0651C133.437 24.6884 131.813 25 130.073 25ZM130.073 22.5416C131.465 22.5416 132.752 22.2876 133.935 21.7798C135.119 21.2719 136.151 20.5679 137.032 19.6676C137.937 18.7442 138.633 17.6708 139.12 16.4474C139.63 15.2239 139.886 13.9081 139.886 12.5C139.886 11.0688 139.63 9.753 139.12 8.55263C138.633 7.32918 137.937 6.26731 137.032 5.36703C136.151 4.44367 135.119 3.72807 133.935 3.22022C132.752 2.71237 131.465 2.45845 130.073 2.45845C128.681 2.45845 127.382 2.71237 126.176 3.22022C124.993 3.72807 123.949 4.44367 123.044 5.36703C122.163 6.26731 121.467 7.32918 120.957 8.55263C120.469 9.753 120.226 11.0572 120.226 12.4654C120.226 13.8966 120.469 15.2239 120.957 16.4474C121.467 17.6708 122.163 18.7442 123.044 19.6676C123.949 20.5679 124.993 21.2719 126.176 21.7798C127.382 22.2876 128.681 22.5416 130.073 22.5416Z" fill="#2D2D2D"/>
<path d="M158.209 25C156.446 25 154.799 24.6884 153.268 24.0651C151.76 23.4187 150.426 22.53 149.266 21.3989C148.13 20.2447 147.237 18.9174 146.587 17.4169C145.961 15.8934 145.648 14.2544 145.648 12.5C145.648 10.7456 145.961 9.11819 146.587 7.61773C147.237 6.09418 148.13 4.76685 149.266 3.63573C150.426 2.48153 151.76 1.5928 153.268 0.969529C154.799 0.323176 156.446 0 158.209 0C159.949 0 161.573 0.323176 163.08 0.969529C164.611 1.5928 165.945 2.48153 167.082 3.63573C168.242 4.76685 169.135 6.09418 169.761 7.61773C170.411 9.11819 170.736 10.7456 170.736 12.5C170.736 14.2544 170.411 15.8934 169.761 17.4169C169.135 18.9174 168.242 20.2447 167.082 21.3989C165.945 22.53 164.611 23.4187 163.08 24.0651C161.573 24.6884 159.949 25 158.209 25ZM158.209 22.5416C159.601 22.5416 160.888 22.2876 162.071 21.7798C163.254 21.2719 164.287 20.5679 165.168 19.6676C166.073 18.7442 166.769 17.6708 167.256 16.4474C167.766 15.2239 168.021 13.9081 168.021 12.5C168.021 11.0688 167.766 9.753 167.256 8.55263C166.769 7.32918 166.073 6.26731 165.168 5.36703C164.287 4.44367 163.254 3.72807 162.071 3.22022C160.888 2.71237 159.601 2.45845 158.209 2.45845C156.817 2.45845 155.518 2.71237 154.312 3.22022C153.129 3.72807 152.085 4.44367 151.18 5.36703C150.299 6.26731 149.603 7.32918 149.092 8.55263C148.605 9.753 148.362 11.0572 148.362 12.4654C148.362 13.8966 148.605 15.2239 149.092 16.4474C149.603 17.6708 150.299 18.7442 151.18 19.6676C152.085 20.5679 153.129 21.2719 154.312 21.7798C155.518 22.2876 156.817 22.5416 158.209 22.5416Z" fill="#2D2D2D"/>
<path d="M174.932 24.6191V0.380886H177.611V11.8767L190.207 0.380886H193.722L180.499 12.2576L194 24.6191H190.242L177.611 12.9848V24.6191H174.932Z" fill="#2D2D2D"/>
</svg>
